<svg width="90" height="19" viewBox="0 0 90 19" fill="none" xmlns="http://www.w3.org/2000/svg">
<path d="M0.34375 18.9688V6.42969C0.34375 4.74219 0.871094 3.35547 1.92578 2.26953C3.03516 1.13672 4.48047 0.570312 6.26172 0.570312C7.87109 0.570312 9.24219 1.13672 10.375 2.26953C10.6562 2.55078 10.8672 2.82422 11.0078 3.08984C11.1875 2.81641 11.4062 2.55469 11.6641 2.30469C12.8438 1.14844 14.207 0.570312 15.7539 0.570312C17.5039 0.570312 18.9492 1.13672 20.0898 2.26953C21.1445 3.31641 21.6719 4.70312 21.6719 6.42969V17.9141L19.4453 18.9688H19.3281V6.42969C19.3281 5.38281 19.0469 4.53516 18.4844 3.88672C17.7891 3.08203 16.8789 2.67969 15.7539 2.67969C14.6289 2.67969 13.7188 3.08203 13.0234 3.88672C12.4609 4.53516 12.1797 5.38281 12.1797 6.42969V17.9141L9.95312 18.9688H9.83594V6.42969C9.83594 5.38281 9.55469 4.53516 8.99219 3.88672C8.29688 3.08203 7.38672 2.67969 6.26172 2.67969C5.13672 2.67969 4.22656 3.08203 3.53125 3.88672C2.96875 4.53516 2.6875 5.38281 2.6875 6.42969V17.9141L0.460938 18.9688H0.34375ZM25.1594 18.9688V1.39062L26.4016 0.804688H30.843C32.6242 0.804688 34.0695 1.37109 35.1789 2.50391C36.2336 3.58203 36.7609 4.96875 36.7609 6.66406C36.7609 8.36719 36.2336 9.75391 35.1789 10.8242C34.5539 11.457 33.8234 11.9141 32.9875 12.1953L37.0422 17.9961L34.9797 18.9688H34.8625L30.3508 12.5234H27.5031V17.9141L25.2766 18.9688H25.1594ZM27.5031 10.4141H30.843C31.8664 10.4141 32.7766 10.0117 33.5734 9.20703C34.1359 8.63672 34.4172 7.78906 34.4172 6.66406C34.4172 5.61719 34.1359 4.76953 33.5734 4.12109C32.8781 3.31641 31.968 2.91406 30.843 2.91406H27.5031V10.4141ZM39.3578 18.5V18.3828L46.9398 2.9375H39.475V2.82031L40.4242 0.804688H50.5727V0.921875L42.9555 16.3672H50.6898V16.4844L49.7406 18.5H39.3578ZM52.4594 14.3633L54.6859 13.3086H54.8031V14.2461C54.8031 15.1211 55.057 15.7852 55.5648 16.2383C56.0492 16.668 56.6352 16.8828 57.3227 16.8828C58.1195 16.8828 58.7406 16.6289 59.1859 16.1211C59.6547 15.5898 59.8891 15.0117 59.8891 14.3867C59.8891 13.7148 59.6391 13.1836 59.1391 12.793C58.7094 12.457 58.1 12.2891 57.3109 12.2891C55.9203 12.2891 54.8227 11.9844 54.018 11.375C53.307 10.8438 52.9516 10.0195 52.9516 8.90234C52.9516 7.81641 53.4477 6.91797 54.4398 6.20703C55.2133 5.65234 56.1742 5.375 57.3227 5.375C58.4242 5.375 59.3812 5.71875 60.1937 6.40625C60.8187 6.94531 61.2055 7.57031 61.3539 8.28125L59.1273 9.33594H59.0102V8.99609C59.0102 8.58984 58.893 8.24219 58.6586 7.95312C58.2836 7.46875 57.7484 7.22656 57.0531 7.22656C56.4984 7.22656 56.0453 7.40234 55.6937 7.75391C55.35 8.09766 55.1781 8.48047 55.1781 8.90234C55.1781 9.40234 55.3891 9.80078 55.8109 10.0977C56.0453 10.2617 56.5453 10.3438 57.3109 10.3438C58.8969 10.3438 60.0883 10.707 60.8852 11.4336C61.7523 12.2227 62.1859 13.25 62.1859 14.5156C62.1859 15.5312 61.7367 16.5 60.8383 17.4219C59.9867 18.2969 58.8148 18.7344 57.3227 18.7344C55.9711 18.7344 54.8344 18.3594 53.9125 17.6094C52.9437 16.8203 52.4594 15.7383 52.4594 14.3633ZM66.1117 3.01953C65.8383 2.73828 65.7016 2.40234 65.7016 2.01172C65.7016 1.61328 65.8383 1.27344 66.1117 0.992188C66.3852 0.710938 66.7172 0.570312 67.1078 0.570312C67.4984 0.570312 67.8305 0.710938 68.1039 0.992188C68.3773 1.27344 68.5141 1.61328 68.5141 2.01172C68.5141 2.40234 68.3773 2.73828 68.1039 3.01953C67.8305 3.30078 67.4984 3.44141 67.1078 3.44141C66.7172 3.44141 66.3852 3.30078 66.1117 3.01953ZM65.9359 18.9688V6.19531L68.1625 5.14062H68.2797V17.9141L66.0531 18.9688H65.9359ZM72.3812 18.9688V10.0625C72.3812 8.77344 72.8656 7.65234 73.8344 6.69922C74.7406 5.81641 75.8773 5.375 77.2445 5.375C78.4867 5.375 79.5609 5.82812 80.4672 6.73438C80.6391 6.90625 80.7953 7.10938 80.9359 7.34375C81.0766 7.11719 81.2328 6.91797 81.4047 6.74609C82.3812 5.83203 83.4555 5.375 84.6273 5.375C85.9789 5.375 87.1156 5.81641 88.0375 6.69922C89.0062 7.63672 89.4906 8.75781 89.4906 10.0625V17.9141L87.2641 18.9688H87.1469V10.0625C87.1469 9.16406 86.9008 8.50781 86.4086 8.09375C85.9242 7.67188 85.3305 7.46094 84.6273 7.46094C83.9242 7.46094 83.3266 7.67188 82.8344 8.09375C82.35 8.50781 82.1078 9.16406 82.1078 10.0625V17.9141L79.8812 18.9688H79.7641V10.0625C79.7641 9.16406 79.518 8.50781 79.0258 8.09375C78.5414 7.67188 77.9477 7.46094 77.2445 7.46094C76.5414 7.46094 75.9437 7.67188 75.4516 8.09375C74.9672 8.50781 74.725 9.16406 74.725 10.0625V17.9141L72.4984 18.9688H72.3812Z" fill="white"/>
</svg>
